<svg width="135" height="35" viewBox="0 0 135 35" fill="none" xmlns="http://www.w3.org/2000/svg">
<path d="M23.119 34.7742C19.3807 36.4941 2.96762 28.0449 0.475436 20.9978C0.0197738 19.7079 -0.314998 0.996393 0.475436 0.0710997C1.26587 -0.854194 15.2612 7.55757 15.2612 7.55757C20.1061 7.07156 23.6677 7.55757 23.6677 7.55757C23.6677 7.55757 35.0686 2.57594 35.5428 3.30495C35.5428 3.30495 36.1101 20.1285 35.5893 22.6333C35.3197 23.9418 28.3731 32.3629 23.119 34.7742Z" fill="#1B1B1B"/>
<path d="M56.3979 6.66821H59.9196V24.2775H57.2005L47.6708 13.2199V24.2775H44.149V6.66821H46.7644L56.3979 18.0365V6.66821ZM71.1849 11.9251H74.5773V24.2775H71.1849V23.5783C70.2268 24.1998 69.0097 24.5882 67.6372 24.5882C64.2189 24.5882 61.474 21.6879 61.474 18.1142C61.474 14.5147 64.2189 11.6143 67.6372 11.6143C69.0097 11.6143 70.2268 12.0028 71.1849 12.6243V11.9251ZM68.1551 21.5066C69.2686 21.5066 70.3822 21.1958 71.1849 20.0564V16.1461C70.3822 15.0067 69.2686 14.696 68.1551 14.696C66.2129 14.696 64.8663 16.2497 64.8663 18.1142C64.8663 19.9528 66.2129 21.5066 68.1551 21.5066ZM83.4952 11.6661C86.9135 11.6661 89.6585 14.5147 89.6585 18.1142C89.6585 21.6879 86.9135 24.5364 83.4952 24.5364C82.1227 24.5364 80.9056 24.1739 79.9475 23.5524V30.3112H76.5551V11.9251H79.9475V12.6502C80.9056 12.0287 82.1227 11.6661 83.4952 11.6661ZM82.9773 21.6102C84.9195 21.6102 86.2661 19.9528 86.2661 18.1142C86.2661 16.2497 84.9195 14.5924 82.9773 14.5924C81.8638 14.5924 80.7503 14.9808 79.9475 16.1202V20.0823C80.7503 21.2217 81.8638 21.6102 82.9773 21.6102ZM93.1933 20.0046C93.4004 21.403 94.4104 21.8432 95.8605 21.8432C97.1553 21.8432 98.0617 21.5066 98.0617 20.8074C98.0617 20.3154 97.6474 19.901 96.7928 19.7457L94.1255 19.2795C92.3128 18.9688 90.4742 17.9847 90.4742 15.6541C90.4742 13.1163 92.6236 11.5884 95.7568 11.5884C97.984 11.5884 100.936 12.2099 101.221 15.7577H98.0876C98.0099 14.6442 96.9482 14.2816 95.7568 14.2816C94.4622 14.2816 93.8407 14.7218 93.8407 15.3175C93.8407 15.7836 94.1773 16.3274 95.3685 16.5346L97.5956 16.8971C99.5119 17.2338 101.299 18.1142 101.299 20.4966C101.299 23.2416 98.9163 24.5882 95.7829 24.5882C93.0638 24.5882 90.3188 23.5783 90.0599 19.9787L93.1933 20.0046ZM111.525 20.9628L111.991 24.0444C110.852 24.4846 109.919 24.5882 109.013 24.5882C105.698 24.5882 103.834 22.5165 103.834 19.3572V14.7736H101.192V11.9251H103.834V7.44508H107.226V11.9251H111.758V14.7736H107.226V19.3572C107.226 20.8074 108.133 21.4548 109.401 21.4548C110.178 21.4548 110.903 21.2217 111.525 20.9628ZM118.352 11.6143C122.599 11.6143 125.162 14.8254 124.515 19.0983H115.451C115.71 20.5225 116.643 21.6102 118.585 21.6102C119.491 21.6102 120.113 21.4548 120.553 20.911H124.308C123.479 23.2416 121.278 24.5882 118.559 24.5882C114.597 24.5882 111.981 21.7914 111.981 18.1142C111.981 14.437 114.571 11.6143 118.352 11.6143ZM118.378 14.4888C116.72 14.4888 115.84 15.4987 115.529 16.7935H121.149C120.967 15.2139 119.957 14.4888 118.378 14.4888ZM129.14 13.3494C130.253 12.2876 131.677 11.7179 133.516 11.7179V14.929C131.6 15.0326 130.201 15.6023 129.14 16.7935V24.2775H125.747V11.9251H129.14V13.3494Z" fill="#1B1B1B"/>
</svg>
